<?xml version="1.0" encoding="UTF-8"?> <svg xmlns="http://www.w3.org/2000/svg" width="223" height="55" viewBox="0 0 223 55" fill="none"><path fill-rule="evenodd" clip-rule="evenodd" d="M21.4329 0C18.3427 0 15.5968 1.91739 14.6085 4.76542L0.383995 45.7526C-1.19219 50.2945 2.28054 55 7.20848 55H50.1041C53.2247 55 55.9906 53.0452 56.9547 50.1582L70.6423 9.17099C72.1541 4.64414 68.6849 0 63.7916 0H21.4329ZM44.1906 27.364L51.6847 11.5104L35.3866 18.8002L19.0885 11.5104L26.5827 27.364L19.0885 43.2177L35.3866 35.928L51.6847 43.2177L44.1906 27.364Z" fill="#019EDC"></path><path d="M106.361 30.8006C106.064 34.596 104.665 37.6379 102.165 39.9266C99.6948 42.1863 96.4805 43.3162 92.5223 43.3162C88.0284 43.3162 84.4271 41.8387 81.7189 38.8836C79.0106 35.9285 77.6565 32.0029 77.6565 27.1067C77.6565 24.1516 78.2369 21.4717 79.3975 19.0671C80.5582 16.6334 82.2992 14.6778 84.6205 13.2003C86.9422 11.6938 89.6651 10.9405 92.7903 10.9405C96.1533 10.9405 99.0848 11.8531 101.585 13.6783C104.085 15.4746 105.588 18.082 106.094 21.5007H100.558C100.171 19.6465 99.2782 18.1979 97.8793 17.1549C96.4805 16.083 94.7545 15.547 92.7008 15.547C90.5879 15.547 88.7874 16.1264 87.2993 17.2853C85.841 18.4442 84.7993 19.8783 84.1742 21.5876C83.5791 23.2679 83.2814 25.1076 83.2814 27.1067C83.2814 28.6132 83.4599 30.0328 83.817 31.3655C84.1742 32.6982 84.71 33.9296 85.4244 35.0594C86.1384 36.1604 87.1059 37.044 88.326 37.7104C89.5759 38.3765 91.0192 38.7099 92.6563 38.7099C97.3882 38.7099 100.097 36.0735 100.781 30.8006H106.361Z" fill="#242424"></path><path d="M115.9 11.6358V42.5776H110.856V11.6358H115.9Z" fill="#242424"></path><path d="M142.07 35.5808C141.505 38.0145 140.269 39.9123 138.365 41.2737C136.49 42.6355 134.243 43.3162 131.624 43.3162C128.142 43.3162 125.374 42.2299 123.32 40.057C121.297 37.8552 120.285 35.0448 120.285 31.6263C120.285 28.1207 121.327 25.2235 123.41 22.9348C125.523 20.646 128.201 19.5016 131.445 19.5016C134.808 19.5016 137.472 20.6315 139.436 22.8913C141.4 25.1221 142.383 28.1786 142.383 32.0608V32.5823H125.374C125.434 34.8422 126.014 36.5949 127.115 37.8408C128.216 39.0575 129.749 39.6658 131.713 39.6658C133.112 39.6658 134.243 39.3473 135.106 38.7099C135.999 38.0435 136.698 37.0004 137.204 35.5808H142.07ZM137.294 29.2796C137.145 27.3964 136.534 25.9188 135.463 24.8469C134.421 23.746 133.067 23.1955 131.401 23.1955C129.734 23.1955 128.38 23.717 127.338 24.76C126.326 25.8029 125.701 27.3095 125.463 29.2796H137.294Z" fill="#242424"></path><path d="M151.117 20.1535V23.3259C153.022 20.8053 155.433 19.5451 158.35 19.5451C159.867 19.5451 161.177 19.8783 162.278 20.5446C163.409 21.2109 164.242 22.1525 164.778 23.3693C166.623 20.8198 169.108 19.5451 172.233 19.5451C174.406 19.5451 176.206 20.1825 177.635 21.4572C179.063 22.703 179.778 24.4413 179.778 26.6721V42.5776H174.688V28.8015C174.688 27.2081 174.406 25.9623 173.84 25.0642C173.275 24.166 172.188 23.717 170.581 23.717C168.945 23.717 167.694 24.224 166.831 25.238C165.968 26.2231 165.537 27.6137 165.537 29.4099V42.5776H160.448V28.5408C160.448 26.9473 160.195 25.745 159.689 24.9338C159.213 24.1226 158.201 23.717 156.653 23.717C154.927 23.717 153.617 24.2675 152.725 25.3684C151.832 26.4403 151.385 27.8744 151.385 29.6707V42.5776H146.296V20.1535H151.117Z" fill="#242424"></path><path d="M184.872 27.0632C185.408 21.9932 188.771 19.4582 194.961 19.4582C197.848 19.4582 200.14 20.0086 201.836 21.1095C203.562 22.2105 204.425 23.9198 204.425 26.2375V37.6233C204.425 38.2607 204.5 38.6953 204.649 38.9271C204.827 39.159 205.154 39.2748 205.631 39.2748C205.988 39.2748 206.375 39.2459 206.791 39.188V42.6644C205.482 42.9832 204.381 43.1425 203.488 43.1425C201.315 43.1425 200.065 42.2445 199.738 40.4483C197.803 42.2445 195.11 43.1425 191.658 43.1425C189.277 43.1425 187.387 42.5486 185.988 41.3609C184.589 40.1439 183.89 38.5069 183.89 36.4501C183.89 35.8127 183.964 35.2188 184.113 34.6682C184.262 34.1179 184.426 33.6398 184.604 33.2342C184.812 32.8286 185.125 32.452 185.542 32.1043C185.988 31.7566 186.345 31.4669 186.613 31.2351C186.911 31.0034 187.372 30.7861 187.997 30.5833C188.652 30.3805 189.128 30.2356 189.426 30.1487C189.753 30.0328 190.304 29.9169 191.077 29.8011C191.851 29.6852 192.357 29.6127 192.595 29.5838C192.863 29.5258 193.399 29.4534 194.202 29.3665C196.018 29.1347 197.253 28.9464 197.908 28.8015C198.562 28.6277 199.009 28.3814 199.247 28.0628C199.455 27.831 199.559 27.295 199.559 26.4548C199.559 24.195 197.982 23.0651 194.827 23.0651C193.161 23.0651 191.94 23.3693 191.167 23.9777C190.393 24.5862 189.902 25.6146 189.693 27.0632H184.872ZM199.515 31.3221C199.128 31.5249 198.681 31.7132 198.175 31.887C197.67 32.0319 197.253 32.1333 196.926 32.1912C196.628 32.2202 196.137 32.2781 195.452 32.365C194.797 32.452 194.366 32.5099 194.158 32.5389C193.533 32.6258 193.042 32.7127 192.684 32.7996C192.327 32.8576 191.881 32.9734 191.345 33.1473C190.839 33.3211 190.437 33.5384 190.14 33.7991C189.872 34.031 189.634 34.3641 189.426 34.7986C189.217 35.2042 189.113 35.6969 189.113 36.2762C189.113 37.3481 189.47 38.1739 190.184 38.7532C190.928 39.3327 191.955 39.6225 193.265 39.6225C195.527 39.6225 197.268 39.0286 198.488 37.8408C199.172 37.1744 199.515 35.8852 199.515 33.9728V31.3221Z" fill="#242424"></path><path d="M222.937 19.7189V24.4558C222.044 24.3689 221.449 24.3254 221.151 24.3254C216.717 24.3254 214.499 27.1212 214.499 32.7127V42.5776H209.455V20.1535H214.232V24.6296C215.868 21.2978 218.443 19.632 221.955 19.632L222.937 19.7189Z" fill="#242424"></path></svg> 